<svg width="100%" height="100%" id="Capa_1" data-name="Capa 1" xmlns="http://www.w3.org/2000/svg" viewBox="0 0 1561.39 367.5"><defs><style>.cls-1{fill:#ffbe00;}.cls-2{fill:#fff;}</style></defs><path class="cls-1" d="M352.76,191.31H253a8.45,8.45,0,0,1-6-2.5,7.92,7.92,0,0,1-2.62-5.91v-58a10.38,10.38,0,0,0-3.3-7.75,10.65,10.65,0,0,0-7.62-3.19,10.87,10.87,0,0,0-10.92,10.94v58a28.2,28.2,0,0,0,2.5,11.83,31.66,31.66,0,0,0,6.72,9.55,31.31,31.31,0,0,0,9.89,6.48,30.69,30.69,0,0,0,12.06,2.4h99.13a10.93,10.93,0,1,0,0-21.85Z"/><path class="cls-1" d="M204,191.31H104.12a8.48,8.48,0,0,1-6-2.5,7.91,7.91,0,0,1-2.61-5.91v-8.44h98a9.53,9.53,0,0,0,7.23-3.17,11.53,11.53,0,0,0,0-15.49,9.51,9.51,0,0,0-7.23-3.18H95.36v-8.4A7.93,7.93,0,0,1,98,138.3a8.53,8.53,0,0,1,6-2.5h99.8a10.93,10.93,0,1,0,0-21.85H104.69a31.13,31.13,0,0,0-12.07,2.39,31.28,31.28,0,0,0-16.6,16,28,28,0,0,0-2.51,11.83v32.2a9.94,9.94,0,0,0,.14,1.36v5.12a27.89,27.89,0,0,0,2.5,11.83,31.24,31.24,0,0,0,16.6,16,30.76,30.76,0,0,0,12.06,2.4H204a10.93,10.93,0,1,0,0-21.85Z"/><path class="cls-1" d="M845.57,130.79a45.47,45.47,0,0,0-12.4-11.71A33.37,33.37,0,0,0,816.56,114h-67A34,34,0,0,0,732,118.5a45.43,45.43,0,0,0-13.21,11.72,53.26,53.26,0,0,0-8.29,15.93,54.42,54.42,0,0,0-.12,34.46,54.44,54.44,0,0,0,7.85,15.71A45.57,45.57,0,0,0,730.62,208a33.21,33.21,0,0,0,16.61,5.13h67a33.85,33.85,0,0,0,17.52-4.55A45.12,45.12,0,0,0,845,196.88,52.82,52.82,0,0,0,853.31,181a54.91,54.91,0,0,0,.11-34.47A54.77,54.77,0,0,0,845.57,130.79ZM834,172.56a24.42,24.42,0,0,1-3.89,9,23.32,23.32,0,0,1-7.83,6.94q-5,2.84-12.74,2.84H754.28q-7.95,0-12.86-2.84a24,24,0,0,1-7.73-6.94,24.72,24.72,0,0,1-3.87-9,40.56,40.56,0,0,1,0-18,23.55,23.55,0,0,1,11.6-15.93q4.92-2.83,12.86-2.84h55.23q7.72,0,12.74,2.84a23.56,23.56,0,0,1,7.83,7,24.18,24.18,0,0,1,3.89,9,40.17,40.17,0,0,1,0,18Z"/><path class="cls-1" d="M1172.28,194.49,1117,120.55a26.74,26.74,0,0,0-10-8.18,29.84,29.84,0,0,0-26.62.33,29.24,29.24,0,0,0-10.24,8.54l-55.28,74.4a9.4,9.4,0,0,0-2.28,6.59,10.85,10.85,0,0,0,19.35,6.83l12.22-16.23h99.78l12,16a10.18,10.18,0,0,0,8.64,4.33,10.87,10.87,0,0,0,10.92-10.93,9.87,9.87,0,0,0-.91-4.2A15.82,15.82,0,0,0,1172.28,194.49ZM1060.59,171l24.78-32.9a30.63,30.63,0,0,1,3.75-4,6.62,6.62,0,0,1,9.78,0,49.54,49.54,0,0,1,4,4l24.66,32.9Z"/><path class="cls-1" d="M1320.65,130.22a45.46,45.46,0,0,0-13.21-11.7,33.83,33.83,0,0,0-17.51-4.57h-96a10.87,10.87,0,0,0-10.92,10.94v77.36A10.87,10.87,0,0,0,1194,213.16h98.21a33.21,33.21,0,0,0,16.62-5.13,45.57,45.57,0,0,0,12.39-11.71,54.22,54.22,0,0,0,7.86-15.71,54.88,54.88,0,0,0-.11-34.46A53.51,53.51,0,0,0,1320.65,130.22Zm-11,42.34a24.4,24.4,0,0,1-3.88,9,23.49,23.49,0,0,1-7.85,6.94c-3.33,1.89-7.59,2.84-12.73,2.84h-80.26V135.8h80.26c5.14,0,9.4.95,12.73,2.84a23.51,23.51,0,0,1,7.85,7,24.16,24.16,0,0,1,3.88,9,40.17,40.17,0,0,1,0,18Z"/><path class="cls-1" d="M1485.15,146.49a54.54,54.54,0,0,0-7.86-15.7,45.61,45.61,0,0,0-12.4-11.71,33.37,33.37,0,0,0-16.6-5.13h-67.06a34.1,34.1,0,0,0-17.52,4.55,45.65,45.65,0,0,0-13.2,11.72,53.26,53.26,0,0,0-8.29,15.93,54.7,54.7,0,0,0-.11,34.46,54.42,54.42,0,0,0,7.84,15.71,45.61,45.61,0,0,0,12.4,11.71,33.21,33.21,0,0,0,16.61,5.13H1446a33.84,33.84,0,0,0,17.51-4.55,45.41,45.41,0,0,0,13.2-11.73A53.22,53.22,0,0,0,1485,181a54.64,54.64,0,0,0,.12-34.47Zm-19.45,26.07a24.57,24.57,0,0,1-3.88,9,23.3,23.3,0,0,1-7.85,6.94q-5,2.84-12.74,2.84H1386q-8,0-12.85-2.84a23.73,23.73,0,0,1-7.73-6.94,24.4,24.4,0,0,1-3.88-9,40.17,40.17,0,0,1,0-18,23.61,23.61,0,0,1,11.61-15.93q4.89-2.83,12.85-2.84h55.22q7.74,0,12.74,2.84a23.53,23.53,0,0,1,7.85,7,24.32,24.32,0,0,1,3.88,9,40.56,40.56,0,0,1,0,18Z"/><path class="cls-1" d="M986.2,172.17a32.21,32.21,0,0,0,9.78-6.48,29.56,29.56,0,0,0,6.59-9.57,30.31,30.31,0,0,0,0-23.64,29.31,29.31,0,0,0-6.59-9.56,32.08,32.08,0,0,0-9.78-6.5A30.23,30.23,0,0,0,974.26,114H874.67A10.87,10.87,0,0,0,863.75,125v77.35a10.89,10.89,0,0,0,10.92,10.94,10.65,10.65,0,0,0,7.62-3.2,10.33,10.33,0,0,0,3.29-7.74V174.56H920l68.84,38a9.5,9.5,0,0,0,7.86.7,11.5,11.5,0,0,0,7.47-13.55,9.49,9.49,0,0,0-4.79-6.28l-34.43-18.83h9.35A30.06,30.06,0,0,0,986.2,172.17ZM885.58,152.72V135.87h89.59a8.56,8.56,0,0,1,6,2.5,8,8,0,0,1,2.61,5.94,7.82,7.82,0,0,1-2.61,6,8.71,8.71,0,0,1-6,2.39Z"/><path class="cls-1" d="M677.84,104.28a90.54,90.54,0,0,0-26.29-23.34q-15.4-9.06-34.9-9.07H393a20.88,20.88,0,0,0-14.19,5.34c-.41.36-.83.63-1.23,1a21,21,0,0,0-6.34,15.4v49.52l116,10.76L455.07,94.56H491c.12,0,.23,0,.35,0s.23,0,.35,0A14.29,14.29,0,0,1,501,98.22c.12.1.21.23.33.34l57.11,61.95,110.12,10.23L558.42,180.91l-56.87,61.24a7.4,7.4,0,0,1-.56.56,14.33,14.33,0,0,1-9.13,3.6H455l32-58.76L371.28,198.26v49.48a20.89,20.89,0,0,0,6.09,15.1c.09.1.16.22.25.3A21,21,0,0,0,393,269.5H621.17a66.13,66.13,0,0,0,33.1-10.21A91.14,91.14,0,0,0,679,236a108.28,108.28,0,0,0,15.62-31.28,108.84,108.84,0,0,0-.22-68.68A105.9,105.9,0,0,0,677.84,104.28Z"/><path class="cls-1" d="M1084.74,267.09l-11.82,9.65-3.78-5.39,17.69-13.11h6.83l-8,56.93H1078Z"/><path class="cls-1" d="M1116.26,258.24h20a22,22,0,0,1,8.82,1.49,12.59,12.59,0,0,1,5.09,3.78,11,11,0,0,1,2.13,5.14,18.84,18.84,0,0,1,0,5.51,24.11,24.11,0,0,1-1.57,5.51,14.85,14.85,0,0,1-3.58,5.15,19.28,19.28,0,0,1-6.16,3.78,25.07,25.07,0,0,1-9.21,1.48h-12.32L1116,315.17h-7.72Zm4.14,25.09h10.15a28.66,28.66,0,0,0,4.51-.36,14.11,14.11,0,0,0,4.15-1.33,8.78,8.78,0,0,0,3.18-2.77,10.55,10.55,0,0,0,1.69-4.71,8.7,8.7,0,0,0-.4-4.7,6.14,6.14,0,0,0-2.38-2.78,10.39,10.39,0,0,0-3.76-1.32,27.11,27.11,0,0,0-4.43-.36h-10.17Z"/><path class="cls-1" d="M1159,281.72a24.09,24.09,0,0,1,7.67-4.22,26,26,0,0,1,8.25-1.41,20.87,20.87,0,0,1,7.07,1.05,11.67,11.67,0,0,1,4.59,2.81,8.94,8.94,0,0,1,2.25,4.06,13.2,13.2,0,0,1,.24,4.79l-2.73,19.46c-.22,1.34-.38,2.57-.49,3.7s-.16,2.19-.16,3.21h-6.43c0-1,.12-1.93.2-2.89s.2-1.93.36-2.9h-.16a17.32,17.32,0,0,1-6.47,5.23,19.38,19.38,0,0,1-7.84,1.53,16.14,16.14,0,0,1-5-.73,10.38,10.38,0,0,1-3.9-2.17,8.66,8.66,0,0,1-2.37-3.58,10.19,10.19,0,0,1-.36-4.94,12.1,12.1,0,0,1,2.49-6.19,15.28,15.28,0,0,1,5.11-4.06,24.84,24.84,0,0,1,7-2.26,48.34,48.34,0,0,1,8.25-.68h5.3l.24-1.61A7.05,7.05,0,0,0,1182,287a6.56,6.56,0,0,0-1.32-2.62,6.77,6.77,0,0,0-2.58-1.85,10.16,10.16,0,0,0-3.94-.68,16.31,16.31,0,0,0-3.74.4,16.93,16.93,0,0,0-3,1,15.12,15.12,0,0,0-2.49,1.41c-.78.53-1.55,1-2.3,1.52Zm18.31,15.12a51.45,51.45,0,0,0-5.32.28,22.71,22.71,0,0,0-5.09,1.09,11.26,11.26,0,0,0-4,2.25,5.92,5.92,0,0,0-1.93,3.7c-.33,2.19.19,3.77,1.53,4.74a9.83,9.83,0,0,0,5.81,1.45,12.55,12.55,0,0,0,5.21-1,11.88,11.88,0,0,0,3.75-2.61,12.07,12.07,0,0,0,2.39-3.58,14.83,14.83,0,0,0,1.09-3.9l.4-2.41Z"/><path class="cls-1" d="M1201.17,277.06h7.24l-.81,5.87h.17a13.72,13.72,0,0,1,5.3-4.95,14.62,14.62,0,0,1,7.08-1.89,9.5,9.5,0,0,1,3.14.48l-1.45,7.8c-.59-.16-1.17-.29-1.73-.4a9.85,9.85,0,0,0-1.73-.16,12,12,0,0,0-8.52,3q-3.22,3-4.11,9.24l-2.65,19.14h-7.24Z"/><path class="cls-1" d="M1230.44,281.72a24.24,24.24,0,0,1,7.68-4.22,26,26,0,0,1,8.24-1.41,20.89,20.89,0,0,1,7.08,1.05A11.56,11.56,0,0,1,1258,280a8.76,8.76,0,0,1,2.25,4.06,13,13,0,0,1,.25,4.79l-2.74,19.46c-.21,1.34-.37,2.57-.48,3.7s-.16,2.19-.16,3.21h-6.43c0-1,.12-1.93.2-2.89s.2-1.93.36-2.9h-.16a17.34,17.34,0,0,1-6.48,5.23,19.34,19.34,0,0,1-7.84,1.53,16.12,16.12,0,0,1-4.94-.73,10.3,10.3,0,0,1-3.9-2.17,8.66,8.66,0,0,1-2.37-3.58,10.31,10.31,0,0,1-.37-4.94,12.19,12.19,0,0,1,2.5-6.19,15.34,15.34,0,0,1,5.1-4.06,25,25,0,0,1,7-2.26,48.31,48.31,0,0,1,8.24-.68h5.31l.24-1.61a7.05,7.05,0,0,0-.12-2.89,6.46,6.46,0,0,0-1.33-2.62,6.73,6.73,0,0,0-2.57-1.85,10.19,10.19,0,0,0-3.94-.68,16.31,16.31,0,0,0-3.74.4,17.33,17.33,0,0,0-3,1,16,16,0,0,0-2.49,1.41c-.78.53-1.54,1-2.29,1.52Zm18.32,15.12a51.64,51.64,0,0,0-5.33.28,22.83,22.83,0,0,0-5.09,1.09,11.13,11.13,0,0,0-3.95,2.25,5.94,5.94,0,0,0-1.94,3.7q-.48,3.29,1.54,4.74a9.83,9.83,0,0,0,5.81,1.45,12.55,12.55,0,0,0,5.21-1,11.88,11.88,0,0,0,3.75-2.61,12,12,0,0,0,2.38-3.58,14.1,14.1,0,0,0,1.09-3.9l.41-2.41Z"/><path class="cls-1" d="M1285.12,269.34h-16.24l1.53-11.1h45l-1.53,11.1h-16.24l-6.44,45.83h-12.54Z"/><path class="cls-1" d="M1304.66,295.63a22.58,22.58,0,0,1,2.86-8.44,23.72,23.72,0,0,1,5.5-6.47,24.29,24.29,0,0,1,7.48-4.15,26.49,26.49,0,0,1,8.69-1.44,23.08,23.08,0,0,1,8.28,1.44,17.06,17.06,0,0,1,6.35,4.15,16,16,0,0,1,3.74,6.47,19.35,19.35,0,0,1,.52,8.44,22.31,22.31,0,0,1-2.89,8.45,24.09,24.09,0,0,1-13,10.61,26.49,26.49,0,0,1-8.68,1.45,23,23,0,0,1-8.28-1.45,16.8,16.8,0,0,1-6.32-4.14,16.35,16.35,0,0,1-3.7-6.47A19.55,19.55,0,0,1,1304.66,295.63Zm12.06,0q-.65,4.42,1.49,7.16t6.72,2.73a10.58,10.58,0,0,0,7.51-2.73,11.74,11.74,0,0,0,3.58-7.16q.64-4.42-1.53-7.15t-6.75-2.74a10.42,10.42,0,0,0-7.48,2.74A11.83,11.83,0,0,0,1316.72,295.63Z"/><path class="cls-1" d="M1393.44,315.17h-11.1L1383,310h-.16a14.23,14.23,0,0,1-2.13,2.13,17.69,17.69,0,0,1-3,2,18.75,18.75,0,0,1-3.65,1.44,14.29,14.29,0,0,1-4,.57,18.69,18.69,0,0,1-7.68-1.49,14.58,14.58,0,0,1-5.51-4.18,15.65,15.65,0,0,1-3-6.39,22.16,22.16,0,0,1-.2-8.13,26.94,26.94,0,0,1,2.33-7.84,25.92,25.92,0,0,1,4.47-6.63,20.94,20.94,0,0,1,6.23-4.62,17.24,17.24,0,0,1,7.72-1.73,19.84,19.84,0,0,1,6.91,1.16,8.9,8.9,0,0,1,4.75,4h.16l3.7-25.89H1402Zm-8.37-19.54q.65-4.42-1.52-7.15t-6.76-2.74a10.42,10.42,0,0,0-7.48,2.74,11.83,11.83,0,0,0-3.54,7.15q-.64,4.42,1.49,7.16t6.72,2.73a10.58,10.58,0,0,0,7.51-2.73A11.74,11.74,0,0,0,1385.07,295.63Z"/><path class="cls-1" d="M1404.37,295.63a22.58,22.58,0,0,1,2.86-8.44,23.72,23.72,0,0,1,5.5-6.47,24.29,24.29,0,0,1,7.48-4.15,26.49,26.49,0,0,1,8.69-1.44,23.08,23.08,0,0,1,8.28,1.44,17.06,17.06,0,0,1,6.35,4.15,16,16,0,0,1,3.74,6.47,19.35,19.35,0,0,1,.52,8.44,22.31,22.31,0,0,1-2.89,8.45,24.09,24.09,0,0,1-13,10.61,26.49,26.49,0,0,1-8.68,1.45,23,23,0,0,1-8.28-1.45,16.8,16.8,0,0,1-6.32-4.14,16.35,16.35,0,0,1-3.7-6.47A19.55,19.55,0,0,1,1404.37,295.63Zm12.06,0q-.65,4.42,1.49,7.16t6.71,2.73a10.59,10.59,0,0,0,7.52-2.73,11.74,11.74,0,0,0,3.58-7.16q.64-4.42-1.53-7.15c-1.44-1.83-3.7-2.74-6.75-2.74a10.42,10.42,0,0,0-7.48,2.74A11.83,11.83,0,0,0,1416.43,295.63Z"/><path class="cls-1" d="M1478.11,287.59a7.37,7.37,0,0,0-6.6-3.3,7.14,7.14,0,0,0-3,.73,3,3,0,0,0-1.77,2.49,1.85,1.85,0,0,0,1.21,2.13,18.73,18.73,0,0,0,3.61,1.21l4.71,1.12a16,16,0,0,1,4.62,1.89,8.93,8.93,0,0,1,3.26,3.5,9.91,9.91,0,0,1,.68,5.91,12,12,0,0,1-2.49,6.23,15.68,15.68,0,0,1-4.79,3.94,20.19,20.19,0,0,1-6.07,2.09,34.94,34.94,0,0,1-6.43.61,28.94,28.94,0,0,1-8.12-1.17,13,13,0,0,1-6.51-4.14l8.44-8.12a10.32,10.32,0,0,0,3.34,3.17,9.08,9.08,0,0,0,4.62,1.09,12,12,0,0,0,3.86-.6,2.7,2.7,0,0,0,2-2.21,2.06,2.06,0,0,0-1.17-2.3,15.13,15.13,0,0,0-3.61-1.28l-4.75-1.13a17.44,17.44,0,0,1-4.66-1.81,8.46,8.46,0,0,1-3.34-3.42,9.33,9.33,0,0,1-.64-5.91,13.31,13.31,0,0,1,2.25-5.95,15.39,15.39,0,0,1,4.3-4.1,19,19,0,0,1,5.59-2.37,25.06,25.06,0,0,1,6.11-.76,26.66,26.66,0,0,1,7.64,1.12,12,12,0,0,1,6.11,4Z"/><polygon class="cls-1" points="1048.45 292.47 1049.57 284.01 1049.69 283.14 1050.56 283.14 1062.35 283.14 1062.35 271.81 1052.31 271.81 1051.17 271.81 1051.32 270.68 1052.92 258.59 1039.97 258.59 1038.33 270.94 1038.22 271.81 1037.34 271.81 1033.33 271.81 1032.86 275.72 1031.69 283.17 1033.98 283.17 1035.5 283.17 1037.44 283.17 1037.24 285.2 1037.24 285.2 1036.2 295.85 1030.3 295.85 1023.64 295.85 1026.81 271.81 1026.81 271.81 1026.95 270.68 1027.49 266.64 1027.55 266.14 1027.89 263.6 1028.55 258.59 1015.6 258.59 1015.51 259.26 1013.97 270.94 1013.85 271.81 1012.97 271.81 1001.95 271.81 1001.95 283.14 1011.23 283.14 1012.37 283.14 1012.22 284.27 1011.4 290.45 1010.8 294.98 1010.68 295.85 1009.8 295.85 998.02 295.85 998.02 307.18 1008.06 307.18 1009.2 307.18 1009.05 308.31 1007.5 319.99 1007.45 320.4 1020.4 320.4 1021.22 314.25 1021.6 311.36 1022.15 307.18 1029.06 307.18 1032.42 307.18 1033.57 307.18 1033.42 308.31 1031.87 319.99 1031.82 320.4 1044.77 320.4 1046.4 308.05 1046.52 307.18 1047.39 307.18 1058.41 307.18 1058.41 295.85 1049.14 295.85 1048 295.85 1048.15 294.72 1048.45 292.47"/><path class="cls-2" d="M921.08,305.82A28.79,28.79,0,0,1,911,313a29.78,29.78,0,0,1-11.82,2.52,28.65,28.65,0,0,1-10.36-1.81,20.84,20.84,0,0,1-7.9-5.18,20.59,20.59,0,0,1-4.63-8.1,24.27,24.27,0,0,1-.65-10.56,28.58,28.58,0,0,1,3.57-10.57,29.75,29.75,0,0,1,6.89-8.09,30.11,30.11,0,0,1,9.36-5.18,32.88,32.88,0,0,1,10.86-1.82,22.34,22.34,0,0,1,9.26,1.82,16.34,16.34,0,0,1,6.54,5.18,20,20,0,0,1,3.47,8.09,32,32,0,0,1,.15,10.57l-.71,4.72H890a10.19,10.19,0,0,0,3,6.9,9.8,9.8,0,0,0,7.09,2.56,12.31,12.31,0,0,0,6.49-1.66,21.42,21.42,0,0,0,5.08-4.27Zm-9.76-21.53a7.94,7.94,0,0,0-1.61-6.54,7.69,7.69,0,0,0-6.33-2.71,12.23,12.23,0,0,0-4.53.8,13,13,0,0,0-3.52,2.07,11.64,11.64,0,0,0-3.93,6.38Z"/><path class="cls-2" d="M963.93,279.77q-2.71-4.12-8.25-4.13a8.8,8.8,0,0,0-3.82.91,3.78,3.78,0,0,0-2.21,3.12,2.31,2.31,0,0,0,1.51,2.66,23.35,23.35,0,0,0,4.52,1.51l5.89,1.41a19.58,19.58,0,0,1,5.78,2.36,11.17,11.17,0,0,1,4.08,4.38c1,1.84,1.26,4.31.85,7.39a15,15,0,0,1-3.11,7.8,19.75,19.75,0,0,1-6,4.93,25.69,25.69,0,0,1-7.6,2.61,44,44,0,0,1-8,.76A36.38,36.38,0,0,1,937.38,314a16.21,16.21,0,0,1-8.15-5.18l10.56-10.16a13,13,0,0,0,4.17,4,11.43,11.43,0,0,0,5.79,1.36,15,15,0,0,0,4.83-.75,3.38,3.38,0,0,0,2.51-2.77,2.56,2.56,0,0,0-1.46-2.87,18.93,18.93,0,0,0-4.52-1.61l-5.94-1.4a22.25,22.25,0,0,1-5.83-2.27,10.67,10.67,0,0,1-4.18-4.27c-1-1.85-1.27-4.31-.8-7.4a16.65,16.65,0,0,1,2.81-7.44,19.07,19.07,0,0,1,5.39-5.13,23.7,23.7,0,0,1,7-3,31.24,31.24,0,0,1,7.64-1,33.28,33.28,0,0,1,9.56,1.41,15.15,15.15,0,0,1,7.65,5Z"/></svg>